<svg id="Capa_1" enable-background="new 0 0 512 512" height="512" viewBox="0 0 512 512" width="512" xmlns="http://www.w3.org/2000/svg"><g><g><g><path d="m422.463 99.997h-29.96v-26.429c0-20.46-5.64-40.493-16.31-57.932l25.555-15.636c13.551 22.148 20.714 47.587 20.714 73.568v26.429z" fill="#008581"/></g></g><g><path d="m294.204 144.569c-28.167 54.161-7.017 121.14 47.147 149.306 16.277 8.465 33.706 12.474 50.899 12.474.061 0 .121-.006.182-.006l54.594-112.692-54.594-108.674c-39.948.068-78.557 21.764-98.228 59.592z" fill="#2d6994"/><path d="m443.511 97.422c-16.333-8.495-33.83-12.474-51.08-12.445v221.365c39.947-.066 78.559-21.787 98.231-59.614v-.001c28.164-54.163 7.012-121.141-47.151-149.305z" fill="#2d5177"/></g><g><g><g><path d="m475.514 91.456-83.092 26.793v-25.964c0-39.436 32.084-71.519 71.52-71.519h48.058z" fill="#badb47"/></g></g></g><g><g><g><path d="m440.48 118.249h-48.058l119.578-97.482v25.964c0 39.435-32.084 71.518-71.52 71.518z" fill="#1fc979"/></g></g></g><g><path d="m0 316.799c0 107.799 87.391 195.187 195.192 195.187l51.111-195.069-51.111-195.305c-107.801 0-195.192 87.389-195.192 195.187z" fill="#fed200"/></g><path d="m195.192 121.612v390.374c107.802 0 195.192-87.388 195.192-195.187s-87.39-195.187-195.192-195.187z" fill="#f8b400"/><g><g><g><path d="m156.882 88.837h103.725v29.96h-103.725z" fill="#008581" transform="matrix(.257 -.966 .966 .257 54.716 278.823)"/></g></g><g><g><g><path d="m118.919 224.824h29.96v29.961h-29.96z" fill="#f8b400"/></g></g><g><g><path d="m88.97 254.763h29.96v29.961h-29.96z" fill="#f8b400"/></g></g></g></g><g><g><g><path d="m55.075 70.754h62.979c51.681 0 93.726 42.045 93.726 93.725v34.025l-108.892-35.112z" fill="#1fc979"/></g></g></g><g><g><g><path d="m55.075 104.78v-34.026l156.705 127.75h-62.979c-51.681 0-93.726-42.045-93.726-93.724z" fill="#badb47"/></g></g></g><g><g><path d="m191.373 445.855v.006c0 23.017 11.678 44.008 31.236 56.146 19.561 12.14 43.555 13.285 64.185 3.065l92.602-45.879c14.005-6.95 22.739-20.922 22.89-36.528l-128.014-29.257-82.897 29.257z" fill="#e1105a"/><path d="m222.662 342.293c-19.589 12.132-31.284 33.132-31.286 56.173l-.002 24.2h210.911c.001-.137.014-.272.014-.409 0-15.772-8.777-29.927-22.894-36.934l-92.515-46.017c-20.629-10.264-44.639-9.146-64.228 2.987z" fill="#b20844"/></g><g><path d="m114.194 470.473v41.514h23.09c33.715 0 61.143-27.654 61.143-61.367v-27.954l-25.662-23.015-35.478 23.015c-14.059 11.211-23.093 28.469-23.093 47.807z" fill="#badb47"/><path d="m114.194 374.858c0 19.338 9.035 36.596 23.093 47.807h61.14v-27.954c0-33.714-27.428-61.141-61.143-61.141h-23.09z" fill="#1fc979"/></g></g><g><g><path d="m398.472 301.065c-.003 0-.003 0-.006 0-23.018 0-44.009 11.677-56.148 31.235-12.14 19.561-13.286 43.554-3.065 64.183l45.881 92.6c6.95 14.004 20.922 22.738 36.529 22.889l29.258-128.011-29.258-82.895z" fill="#fd445f"/><path d="m502.037 332.354c-12.132-19.588-33.132-31.283-56.174-31.285l-24.2-.002v210.906c.137.001.272.014.409.014 15.773 0 29.928-8.776 36.935-22.893l46.019-92.512c10.262-20.63 9.144-44.64-2.989-64.228z" fill="#e1105a"/></g><g><path d="m373.794 223.783h-41.341v23.118c0 33.756 27.463 61.218 61.219 61.218h27.99l23.044-25.693-23.044-35.522c-11.226-14.076-28.505-23.121-47.868-23.121z" fill="#badb47"/><path d="m469.531 223.783c-19.363 0-36.642 9.046-47.869 23.121v61.215h27.99c33.757 0 62.348-27.462 62.348-61.218v-23.118z" fill="#1fc979"/></g></g></g></svg>